<svg width="220" height="220" viewBox="0 0 220 220" fill="none" xmlns="http://www.w3.org/2000/svg">
<path d="M110 219.936C170.751 219.936 220 192.575 220 158.825C220 125.074 170.751 97.7136 110 97.7136C49.2487 97.7136 0 125.074 0 158.825C0 192.575 49.2487 219.936 110 219.936Z" fill="#8899A6"/>
<path d="M110 209.242C170.751 209.242 220 181.881 220 148.13C220 114.38 170.751 87.0193 110 87.0193C49.2487 87.0193 0 114.38 0 148.13C0 181.881 49.2487 209.242 110 209.242Z" fill="#CCD6DD"/>
<path d="M199.681 144.677C199.681 170.711 159.531 191.806 110 191.806C60.4699 191.806 20.3199 170.711 20.3199 144.677C20.3199 118.656 60.4699 97.5547 110 97.5547C159.525 97.5547 199.681 118.656 199.681 144.677Z" fill="url(#paint0_linear_1_3848)"/>
<path d="M196.979 137.699C196.979 197.918 23.0205 197.918 23.0205 137.699V84.1714H196.979V137.699Z" fill="#FFB8C2"/>
<path d="M109.903 110.95C55.0007 110.95 23.0152 85.699 23.0152 85.699C23.0152 85.699 22.9174 91.3456 22.9174 95.9962C22.9174 95.9962 23.1129 125.928 38.6352 125.928C53.6624 125.928 52.5685 140.277 62.0652 141.762C71.4824 143.235 72.5274 136.03 84.2179 136.03C95.9085 136.03 97.9679 148.9 109.903 148.9C123.891 148.9 125.04 136.03 136.725 136.03C148.409 136.03 149.753 143.51 157.417 141.438C166.626 138.945 162.391 125.935 181.171 125.935C196.693 125.935 197.078 97.5301 197.078 97.5301C197.078 92.8856 196.974 85.7051 196.974 85.7051C196.974 85.7051 164.811 110.95 109.903 110.95Z" fill="url(#paint1_linear_1_3848)"/>
<path d="M199.681 77.7732C199.681 103.8 159.531 124.902 110 124.902C60.4699 124.902 20.3199 103.8 20.3199 77.7732C20.3199 51.746 60.4699 30.6443 110 30.6443C159.525 30.6443 199.681 51.746 199.681 77.7732Z" fill="#FF4D67"/>
<path d="M156.835 84.1713C153.138 84.1713 150.144 81.1768 150.144 77.4796V30.6441C150.144 28.8693 150.849 27.1673 152.104 25.9123C153.358 24.6574 155.06 23.9524 156.835 23.9524C158.61 23.9524 160.312 24.6574 161.567 25.9123C162.822 27.1673 163.527 28.8693 163.527 30.6441V77.4796C163.527 81.1768 160.532 84.1713 156.835 84.1713Z" fill="#FFF8E8"/>
<path d="M156.836 40.6787C149.735 40.6787 144.149 37.4276 141.894 31.9826C139.939 27.2587 138.967 17.0104 154.471 1.5126C154.782 1.20181 155.15 0.955252 155.556 0.787032C155.962 0.618812 156.397 0.532227 156.836 0.532227C157.275 0.532227 157.71 0.618812 158.116 0.787032C158.522 0.955252 158.891 1.20181 159.201 1.5126C174.705 17.0165 173.733 27.2587 171.778 31.9826C169.523 37.4276 163.937 40.6787 156.836 40.6787Z" fill="#FFD300"/>
<path d="M109.999 104.24C106.302 104.24 103.308 101.246 103.308 97.5487V50.7193C103.308 49.8405 103.481 48.9703 103.817 48.1585C104.153 47.3466 104.646 46.6089 105.268 45.9875C105.889 45.3662 106.627 44.8732 107.438 44.537C108.25 44.2007 109.121 44.0276 109.999 44.0276C110.878 44.0276 111.748 44.2007 112.56 44.537C113.372 44.8732 114.11 45.3662 114.731 45.9875C115.352 46.6089 115.845 47.3466 116.182 48.1585C116.518 48.9703 116.691 49.8405 116.691 50.7193V97.5548C116.691 101.246 113.697 104.24 109.999 104.24Z" fill="#FFF8E8"/>
<path d="M110 60.7534C102.899 60.7534 97.313 57.5023 95.058 52.0573C93.0963 47.3334 92.1308 37.0851 107.635 21.5873C107.945 21.2765 108.314 21.03 108.72 20.8617C109.125 20.6935 109.56 20.6069 110 20.6069C110.439 20.6069 110.874 20.6935 111.28 20.8617C111.686 21.03 112.054 21.2765 112.365 21.5873C127.869 37.0912 126.897 47.3334 124.941 52.0573C122.686 57.5023 117.101 60.7534 110 60.7534Z" fill="#FFD300"/>
<path d="M63.1644 84.1713C59.4672 84.1713 56.4727 81.1768 56.4727 77.4796V30.6441C56.4727 29.7653 56.6458 28.8951 56.9821 28.0833C57.3184 27.2714 57.8113 26.5337 58.4327 25.9123C59.0541 25.291 59.7918 24.7981 60.6036 24.4618C61.4155 24.1255 62.2857 23.9524 63.1644 23.9524C64.0432 23.9524 64.9133 24.1255 65.7252 24.4618C66.5371 24.7981 67.2748 25.291 67.8961 25.9123C68.5175 26.5337 69.0104 27.2714 69.3467 28.0833C69.683 28.8951 69.8561 29.7653 69.8561 30.6441V77.4796C69.8561 81.1768 66.8616 84.1713 63.1644 84.1713Z" fill="#FFF8E8"/>
<path d="M63.1637 40.6787C56.0626 40.6787 50.477 37.4276 48.222 31.9826C46.2604 27.2587 45.2948 17.0104 60.7987 1.5126C61.1092 1.20181 61.4778 0.955252 61.8836 0.787032C62.2894 0.618812 62.7244 0.532227 63.1637 0.532227C63.603 0.532227 64.038 0.618812 64.4438 0.787032C64.8496 0.955252 65.2182 1.20181 65.5287 1.5126C81.0326 17.0165 80.0609 27.2587 78.1054 31.9826C75.8504 37.4276 70.2648 40.6787 63.1637 40.6787Z" fill="#FFD300"/>
<defs>
<linearGradient id="paint0_linear_1_3848" x1="199.681" y1="191.806" x2="22.3131" y2="93.9422" gradientUnits="userSpaceOnUse">
<stop stop-color="#FF4D67"/>
<stop offset="1" stop-color="#FF8395"/>
</linearGradient>
<linearGradient id="paint1_linear_1_3848" x1="197.078" y1="148.9" x2="59.9554" y2="39.3422" gradientUnits="userSpaceOnUse">
<stop stop-color="#FF4D67"/>
<stop offset="1" stop-color="#FF8395"/>
</linearGradient>
</defs>
</svg>
