<svg width="418" height="369" viewBox="0 0 418 369" fill="none" xmlns="http://www.w3.org/2000/svg">
<path d="M76.7723 16.3303L85.8985 31.7922L79.3648 34.0965L76.7723 16.3303Z" fill="#EAD300"/>
<path d="M30.1978 32.6826L44.4955 31.3591L44.0694 36.7752L30.1978 32.6826Z" fill="#EA0000"/>
<circle cx="61.5" cy="38.5" r="1.5" fill="#9F00EA"/>
<circle cx="64.5" cy="23.5" r="3.5" fill="#EAA900"/>
<rect x="47" y="52.1431" width="10" height="5" transform="rotate(-45.5869 47 52.1431)" fill="#EAA900"/>
<rect x="94.8723" y="17" width="3" height="5" transform="rotate(21.9912 94.8723 17)" fill="#EA0000"/>
<rect x="60.4045" y="12.5156" width="12" height="4" transform="rotate(-116.768 60.4045 12.5156)" fill="#EA0000"/>
<path d="M21 25.5575C21 25.5575 27.3942 22.3727 28.8448 24.042C29.6417 24.9591 30.2435 26.0698 29.5298 26.9722C28.9796 27.6679 28.1853 27.7566 27.2546 27.5931C25.2838 27.247 25.3137 24.5101 26.1048 22.8151C27.1971 20.4747 32.9956 21.8561 32.9956 21.8561" stroke="#05EA00" stroke-width="1.2"/>
<path d="M43.0821 45C43.0821 45 42.5953 42.1082 43.9924 41.5318C45.166 41.0476 46.1835 43.189 47.1479 42.4127C48.1247 41.6263 45.6862 40.3805 46.4804 39.4399C47.3162 38.4501 50 39.4399 50 39.4399" stroke="#005EEA" stroke-width="1.2"/>
<path d="M39.8076 8.5C39.8076 10.9853 43.791 13 41.0191 13C38.2471 13 36 10.9853 36 8.5C36 6.01472 38.2471 4 41.0191 4C43.791 4 39.8076 6.01472 39.8076 8.5Z" fill="#9F00EA"/>
<path d="M98.2391 37.7445C99.8876 37.9105 101.49 35.4027 101.305 37.2414C101.12 39.08 99.6334 40.4361 97.9849 40.2702C96.3364 40.1042 95.15 38.4792 95.3351 36.6405C95.5201 34.8018 96.5906 37.5786 98.2391 37.7445Z" fill="#005EEA"/>
<path d="M83 42L85.9389 42.9549L87.7553 45.4549V48.5451L85.9389 51.0451L83 52L80.0611 51.0451L78.2447 48.5451V45.4549L80.0611 42.9549L83 42Z" fill="#05EA00"/>
<path d="M47 25L48.7634 25.5729L49.8532 27.0729V28.9271L48.7634 30.4271L47 31L45.2366 30.4271L44.1468 28.9271V27.0729L45.2366 25.5729L47 25Z" fill="#EAD300"/>
<path d="M74.6732 12.3155L75.1712 8.02024L78.6429 10.2211L79.0386 6.61786L82.2052 8.79927L83.1915 4.90385" stroke="#005EEA"/>
<path d="M210.772 29.3303L219.899 44.7922L213.365 47.0965L210.772 29.3303Z" fill="#EAD300"/>
<path d="M164.198 45.6826L178.496 44.3591L178.069 49.7752L164.198 45.6826Z" fill="#EA0000"/>
<circle cx="195.5" cy="51.5" r="1.5" fill="#9F00EA"/>
<circle cx="198.5" cy="36.5" r="3.5" fill="#EAA900"/>
<rect x="181" y="65.1431" width="10" height="5" transform="rotate(-45.5869 181 65.1431)" fill="#EAA900"/>
<rect x="228.872" y="30" width="3" height="5" transform="rotate(21.9912 228.872 30)" fill="#EA0000"/>
<rect x="194.405" y="25.5156" width="12" height="4" transform="rotate(-116.768 194.405 25.5156)" fill="#EA0000"/>
<path d="M155 38.5575C155 38.5575 161.394 35.3727 162.845 37.042C163.642 37.9591 164.244 39.0698 163.53 39.9722C162.98 40.6679 162.185 40.7566 161.255 40.5931C159.284 40.247 159.314 37.5101 160.105 35.8151C161.197 33.4747 166.996 34.8561 166.996 34.8561" stroke="#05EA00" stroke-width="1.2"/>
<path d="M177.082 58C177.082 58 176.595 55.1082 177.992 54.5318C179.166 54.0476 180.184 56.189 181.148 55.4127C182.125 54.6263 179.686 53.3805 180.48 52.4399C181.316 51.4501 184 52.4399 184 52.4399" stroke="#005EEA" stroke-width="1.2"/>
<path d="M173.808 21.5C173.808 23.9853 177.791 26 175.019 26C172.247 26 170 23.9853 170 21.5C170 19.0147 172.247 17 175.019 17C177.791 17 173.808 19.0147 173.808 21.5Z" fill="#9F00EA"/>
<path d="M232.239 50.7445C233.888 50.9105 235.49 48.4027 235.305 50.2414C235.12 52.08 233.633 53.4361 231.985 53.2702C230.336 53.1042 229.15 51.4792 229.335 49.6405C229.52 47.8018 230.591 50.5786 232.239 50.7445Z" fill="#005EEA"/>
<path d="M217 55L219.939 55.9549L221.755 58.4549V61.5451L219.939 64.0451L217 65L214.061 64.0451L212.245 61.5451V58.4549L214.061 55.9549L217 55Z" fill="#05EA00"/>
<path d="M181 38L182.763 38.5729L183.853 40.0729V41.9271L182.763 43.4271L181 44L179.237 43.4271L178.147 41.9271V40.0729L179.237 38.5729L181 38Z" fill="#EAD300"/>
<path d="M208.673 25.3155L209.171 21.0202L212.643 23.2211L213.039 19.6179L216.205 21.7993L217.191 17.9039" stroke="#005EEA"/>
<path d="M369.772 21.3303L378.899 36.7922L372.365 39.0965L369.772 21.3303Z" fill="#EAD300"/>
<path d="M323.198 37.6826L337.495 36.3591L337.069 41.7752L323.198 37.6826Z" fill="#EA0000"/>
<circle cx="354.5" cy="43.5" r="1.5" fill="#9F00EA"/>
<circle cx="357.5" cy="28.5" r="3.5" fill="#EAA900"/>
<rect x="340" y="57.1431" width="10" height="5" transform="rotate(-45.5869 340 57.1431)" fill="#EAA900"/>
<rect x="387.872" y="22" width="3" height="5" transform="rotate(21.9912 387.872 22)" fill="#EA0000"/>
<rect x="353.405" y="17.5156" width="12" height="4" transform="rotate(-116.768 353.405 17.5156)" fill="#EA0000"/>
<path d="M314 30.5575C314 30.5575 320.394 27.3727 321.845 29.042C322.642 29.9591 323.244 31.0698 322.53 31.9722C321.98 32.6679 321.185 32.7566 320.255 32.5931C318.284 32.247 318.314 29.5101 319.105 27.8151C320.197 25.4747 325.996 26.8561 325.996 26.8561" stroke="#05EA00" stroke-width="1.2"/>
<path d="M336.082 50C336.082 50 335.595 47.1082 336.992 46.5318C338.166 46.0476 339.184 48.189 340.148 47.4127C341.125 46.6263 338.686 45.3805 339.48 44.4399C340.316 43.4501 343 44.4399 343 44.4399" stroke="#005EEA" stroke-width="1.2"/>
<path d="M332.808 13.5C332.808 15.9853 336.791 18 334.019 18C331.247 18 329 15.9853 329 13.5C329 11.0147 331.247 9 334.019 9C336.791 9 332.808 11.0147 332.808 13.5Z" fill="#9F00EA"/>
<path d="M391.239 42.7445C392.888 42.9105 394.49 40.4027 394.305 42.2414C394.12 44.08 392.633 45.4361 390.985 45.2702C389.336 45.1042 388.15 43.4792 388.335 41.6405C388.52 39.8018 389.591 42.5786 391.239 42.7445Z" fill="#005EEA"/>
<path d="M376 47L378.939 47.9549L380.755 50.4549V53.5451L378.939 56.0451L376 57L373.061 56.0451L371.245 53.5451V50.4549L373.061 47.9549L376 47Z" fill="#05EA00"/>
<path d="M340 30L341.763 30.5729L342.853 32.0729V33.9271L341.763 35.4271L340 36L338.237 35.4271L337.147 33.9271V32.0729L338.237 30.5729L340 30Z" fill="#EAD300"/>
<path d="M367.673 17.3155L368.171 13.0202L371.643 15.2211L372.039 11.6179L375.205 13.7993L376.191 9.90385" stroke="#005EEA"/>
<path d="M59.7723 141.33L68.8985 156.792L62.3648 159.096L59.7723 141.33Z" fill="#EAD300"/>
<path d="M13.1978 157.683L27.4955 156.359L27.0694 161.775L13.1978 157.683Z" fill="#EA0000"/>
<circle cx="44.5" cy="163.5" r="1.5" fill="#9F00EA"/>
<circle cx="47.5" cy="148.5" r="3.5" fill="#EAA900"/>
<rect x="30" y="177.143" width="10" height="5" transform="rotate(-45.5869 30 177.143)" fill="#EAA900"/>
<rect x="77.8723" y="142" width="3" height="5" transform="rotate(21.9912 77.8723 142)" fill="#EA0000"/>
<rect x="43.4045" y="137.516" width="12" height="4" transform="rotate(-116.768 43.4045 137.516)" fill="#EA0000"/>
<path d="M3.99997 150.558C3.99997 150.558 10.3942 147.373 11.8448 149.042C12.6417 149.959 13.2435 151.07 12.5298 151.972C11.9796 152.668 11.1853 152.757 10.2546 152.593C8.28378 152.247 8.31367 149.51 9.10481 147.815C10.1971 145.475 15.9956 146.856 15.9956 146.856" stroke="#05EA00" stroke-width="1.2"/>
<path d="M26.0821 170C26.0821 170 25.5953 167.108 26.9924 166.532C28.166 166.048 29.1835 168.189 30.1479 167.413C31.1247 166.626 28.6862 165.38 29.4804 164.44C30.3162 163.45 33 164.44 33 164.44" stroke="#005EEA" stroke-width="1.2"/>
<path d="M22.8076 133.5C22.8076 135.985 26.791 138 24.0191 138C21.2471 138 19 135.985 19 133.5C19 131.015 21.2471 129 24.0191 129C26.791 129 22.8076 131.015 22.8076 133.5Z" fill="#9F00EA"/>
<path d="M81.2391 162.745C82.8876 162.91 84.49 160.403 84.3049 162.241C84.1199 164.08 82.6334 165.436 80.9849 165.27C79.3364 165.104 78.15 163.479 78.3351 161.64C78.5201 159.802 79.5906 162.579 81.2391 162.745Z" fill="#005EEA"/>
<path d="M66 167L68.9389 167.955L70.7553 170.455V173.545L68.9389 176.045L66 177L63.0611 176.045L61.2447 173.545V170.455L63.0611 167.955L66 167Z" fill="#05EA00"/>
<path d="M30 150L31.7634 150.573L32.8532 152.073V153.927L31.7634 155.427L30 156L28.2366 155.427L27.1468 153.927V152.073L28.2366 150.573L30 150Z" fill="#EAD300"/>
<path d="M57.6732 137.316L58.1712 133.02L61.6429 135.221L62.0386 131.618L65.2052 133.799L66.1915 129.904" stroke="#005EEA"/>
<path d="M387.772 137.33L396.899 152.792L390.365 155.096L387.772 137.33Z" fill="#EAD300"/>
<path d="M341.198 153.683L355.495 152.359L355.069 157.775L341.198 153.683Z" fill="#EA0000"/>
<circle cx="372.5" cy="159.5" r="1.5" fill="#9F00EA"/>
<circle cx="375.5" cy="144.5" r="3.5" fill="#EAA900"/>
<rect x="358" y="173.143" width="10" height="5" transform="rotate(-45.5869 358 173.143)" fill="#EAA900"/>
<rect x="405.872" y="138" width="3" height="5" transform="rotate(21.9912 405.872 138)" fill="#EA0000"/>
<rect x="371.405" y="133.516" width="12" height="4" transform="rotate(-116.768 371.405 133.516)" fill="#EA0000"/>
<path d="M332 146.558C332 146.558 338.394 143.373 339.845 145.042C340.642 145.959 341.244 147.07 340.53 147.972C339.98 148.668 339.185 148.757 338.255 148.593C336.284 148.247 336.314 145.51 337.105 143.815C338.197 141.475 343.996 142.856 343.996 142.856" stroke="#05EA00" stroke-width="1.2"/>
<path d="M354.082 166C354.082 166 353.595 163.108 354.992 162.532C356.166 162.048 357.184 164.189 358.148 163.413C359.125 162.626 356.686 161.38 357.48 160.44C358.316 159.45 361 160.44 361 160.44" stroke="#005EEA" stroke-width="1.2"/>
<path d="M350.808 129.5C350.808 131.985 354.791 134 352.019 134C349.247 134 347 131.985 347 129.5C347 127.015 349.247 125 352.019 125C354.791 125 350.808 127.015 350.808 129.5Z" fill="#9F00EA"/>
<path d="M409.239 158.745C410.888 158.91 412.49 156.403 412.305 158.241C412.12 160.08 410.633 161.436 408.985 161.27C407.336 161.104 406.15 159.479 406.335 157.64C406.52 155.802 407.591 158.579 409.239 158.745Z" fill="#005EEA"/>
<path d="M394 163L396.939 163.955L398.755 166.455V169.545L396.939 172.045L394 173L391.061 172.045L389.245 169.545V166.455L391.061 163.955L394 163Z" fill="#05EA00"/>
<path d="M358 146L359.763 146.573L360.853 148.073V149.927L359.763 151.427L358 152L356.237 151.427L355.147 149.927V148.073L356.237 146.573L358 146Z" fill="#EAD300"/>
<path d="M385.673 133.316L386.171 129.02L389.643 131.221L390.039 127.618L393.205 129.799L394.191 125.904" stroke="#005EEA"/>
<path d="M389.772 307.33L398.899 322.792L392.365 325.096L389.772 307.33Z" fill="#EAD300"/>
<path d="M343.198 323.683L357.495 322.359L357.069 327.775L343.198 323.683Z" fill="#EA0000"/>
<circle cx="374.5" cy="329.5" r="1.5" fill="#9F00EA"/>
<circle cx="377.5" cy="314.5" r="3.5" fill="#EAA900"/>
<rect x="360" y="343.143" width="10" height="5" transform="rotate(-45.5869 360 343.143)" fill="#EAA900"/>
<rect x="407.872" y="308" width="3" height="5" transform="rotate(21.9912 407.872 308)" fill="#EA0000"/>
<rect x="373.405" y="303.516" width="12" height="4" transform="rotate(-116.768 373.405 303.516)" fill="#EA0000"/>
<path d="M334 316.558C334 316.558 340.394 313.373 341.845 315.042C342.642 315.959 343.244 317.07 342.53 317.972C341.98 318.668 341.185 318.757 340.255 318.593C338.284 318.247 338.314 315.51 339.105 313.815C340.197 311.475 345.996 312.856 345.996 312.856" stroke="#05EA00" stroke-width="1.2"/>
<path d="M356.082 336C356.082 336 355.595 333.108 356.992 332.532C358.166 332.048 359.184 334.189 360.148 333.413C361.125 332.626 358.686 331.38 359.48 330.44C360.316 329.45 363 330.44 363 330.44" stroke="#005EEA" stroke-width="1.2"/>
<path d="M352.808 299.5C352.808 301.985 356.791 304 354.019 304C351.247 304 349 301.985 349 299.5C349 297.015 351.247 295 354.019 295C356.791 295 352.808 297.015 352.808 299.5Z" fill="#9F00EA"/>
<path d="M411.239 328.745C412.888 328.91 414.49 326.403 414.305 328.241C414.12 330.08 412.633 331.436 410.985 331.27C409.336 331.104 408.15 329.479 408.335 327.64C408.52 325.802 409.591 328.579 411.239 328.745Z" fill="#005EEA"/>
<path d="M396 333L398.939 333.955L400.755 336.455V339.545L398.939 342.045L396 343L393.061 342.045L391.245 339.545V336.455L393.061 333.955L396 333Z" fill="#05EA00"/>
<path d="M360 316L361.763 316.573L362.853 318.073V319.927L361.763 321.427L360 322L358.237 321.427L357.147 319.927V318.073L358.237 316.573L360 316Z" fill="#EAD300"/>
<path d="M387.673 303.316L388.171 299.02L391.643 301.221L392.039 297.618L395.205 299.799L396.191 295.904" stroke="#005EEA"/>
<path d="M43.7723 286.33L52.8985 301.792L46.3648 304.096L43.7723 286.33Z" fill="#EAD300"/>
<path d="M-2.80219 302.683L11.4955 301.359L11.0694 306.775L-2.80219 302.683Z" fill="#EA0000"/>
<circle cx="28.5" cy="308.5" r="1.5" fill="#9F00EA"/>
<circle cx="31.5" cy="293.5" r="3.5" fill="#EAA900"/>
<rect x="14" y="322.143" width="10" height="5" transform="rotate(-45.5869 14 322.143)" fill="#EAA900"/>
<rect x="61.8723" y="287" width="3" height="5" transform="rotate(21.9912 61.8723 287)" fill="#EA0000"/>
<rect x="27.4045" y="282.516" width="12" height="4" transform="rotate(-116.768 27.4045 282.516)" fill="#EA0000"/>
<path d="M-12 295.558C-12 295.558 -5.60576 292.373 -4.1552 294.042C-3.35829 294.959 -2.75648 296.07 -3.47019 296.972C-4.02036 297.668 -4.81467 297.757 -5.74536 297.593C-7.71622 297.247 -7.68633 294.51 -6.89519 292.815C-5.80287 290.475 -0.00444782 291.856 -0.00444782 291.856" stroke="#05EA00" stroke-width="1.2"/>
<path d="M10.0821 315C10.0821 315 9.59531 312.108 10.9924 311.532C12.166 311.048 13.1835 313.189 14.1479 312.413C15.1247 311.626 12.6862 310.38 13.4804 309.44C14.3162 308.45 17 309.44 17 309.44" stroke="#005EEA" stroke-width="1.2"/>
<path d="M6.80758 278.5C6.80758 280.985 10.791 283 8.01908 283C5.24712 283 3 280.985 3 278.5C3 276.015 5.24712 274 8.01908 274C10.791 274 6.80758 276.015 6.80758 278.5Z" fill="#9F00EA"/>
<path d="M65.2391 307.745C66.8876 307.91 68.49 305.403 68.3049 307.241C68.1199 309.08 66.6334 310.436 64.9849 310.27C63.3364 310.104 62.15 308.479 62.3351 306.64C62.5201 304.802 63.5906 307.579 65.2391 307.745Z" fill="#005EEA"/>
<path d="M50 312L52.9389 312.955L54.7553 315.455V318.545L52.9389 321.045L50 322L47.0611 321.045L45.2447 318.545V315.455L47.0611 312.955L50 312Z" fill="#05EA00"/>
<path d="M14 295L15.7634 295.573L16.8532 297.073V298.927L15.7634 300.427L14 301L12.2366 300.427L11.1468 298.927V297.073L12.2366 295.573L14 295Z" fill="#EAD300"/>
<path d="M41.6732 282.316L42.1712 278.02L45.6429 280.221L46.0386 276.618L49.2052 278.799L50.1915 274.904" stroke="#005EEA"/>
</svg>
