<svg width="24" height="25" viewBox="0 0 24 25" fill="none" xmlns="http://www.w3.org/2000/svg">
<g clip-path="url(#clip0_1300_13257)">
<path d="M23.5078 12.9745C23.5078 11.9913 23.4295 11.2738 23.2598 10.5297H12.2295V14.9676H18.7041C18.5736 16.0705 17.8687 17.7315 16.3022 18.8476L16.2802 18.9962L19.7678 21.7464L20.0095 21.7709C22.2285 19.6847 23.5078 16.6153 23.5078 12.9745Z" fill="#4285F4"/>
<path d="M12.2296 24.6676C15.4016 24.6676 18.0645 23.6045 20.0095 21.7709L16.3023 18.8476C15.3102 19.5518 13.9787 20.0434 12.2296 20.0434C9.1228 20.0434 6.48598 17.9574 5.54603 15.074L5.40825 15.0859L1.7818 17.9427L1.73438 18.0769C3.6663 21.9834 7.63462 24.6676 12.2296 24.6676Z" fill="#34A853"/>
<path d="M5.54621 15.0739C5.2982 14.3298 5.15466 13.5325 5.15466 12.7087C5.15466 11.8849 5.2982 11.0876 5.53316 10.3435L5.52659 10.1851L1.8547 7.28235L1.73457 7.34052C0.938328 8.96162 0.481445 10.782 0.481445 12.7087C0.481445 14.6354 0.938328 16.4558 1.73457 18.0769L5.54621 15.0739Z" fill="#FBBC05"/>
<path d="M12.2295 5.37403C14.4356 5.37403 15.9237 6.34401 16.7722 7.15461L20.0878 3.85928C18.0515 1.9326 15.4015 0.75 12.2295 0.75C7.63462 0.75 3.6663 3.43406 1.73438 7.34056L5.53297 10.3436C6.48597 7.4602 9.12279 5.37403 12.2295 5.37403Z" fill="#EB4335"/>
</g>
<defs>
<clipPath id="clip0_1300_13257">
<rect width="23.04" height="24" fill="white" transform="translate(0.480469 0.75)"/>
</clipPath>
</defs>
</svg>
