<svg width="160" height="128" viewBox="0 0 160 128" fill="none" xmlns="http://www.w3.org/2000/svg">
    <defs>
        <linearGradient id="paint0_linear_1227_29886" x1="146.666" y1="113.336" x2="-2.96464"
            y2="55.4921" gradientUnits="userSpaceOnUse">
            <stop stop-color="#FF4D67" />
            <stop offset="1" stop-color="#FF8395" />
        </linearGradient>
        <linearGradient id="paint1_linear_1227_29886" x1="146.666" y1="113.336" x2="-2.96464"
            y2="55.4921" gradientUnits="userSpaceOnUse">
            <stop stop-color="#FF4D67" />
            <stop offset="1" stop-color="#FF8395" />
        </linearGradient>
    </defs>
    <path fill-rule="evenodd" clip-rule="evenodd"
        d="M79.3688 13.3333H40.754C24.6068 13.3333 13.333 24.4605 13.333 40.4068V86.2625C13.333 102.209 24.6068 113.336 40.754 113.336H79.3688C95.5161 113.336 106.79 102.209 106.79 86.2625V40.4068C106.79 24.4605 95.5161 13.3333 79.3688 13.3333ZM76.9404 53.3437C76.9404 54.1325 75.7792 55.951 73.4567 58.7993C71.1343 61.6476 67.6506 65.5037 63.0057 70.3677H76.8747C77.3567 70.3677 77.7511 71.025 78.0578 72.3396C78.4084 73.6103 78.5836 75.4289 78.5836 77.7951C78.5836 80.1176 78.2988 82.1771 77.7292 83.9737C77.2033 85.7703 76.4803 86.6686 75.5601 86.6686H43.5498C42.279 86.6686 41.3588 85.3978 40.7892 82.8563C40.2633 80.3148 40.0004 77.5541 40.0004 74.5744C40.0004 73.9171 41.2274 72.1205 43.6813 69.1846C46.1352 66.2486 49.8379 62.1515 54.7896 56.8931H42.038C40.8549 56.8931 40.2633 54.987 40.2633 51.1747C40.2633 48.5017 40.5482 45.982 41.1178 43.6158C41.6875 41.2057 42.4105 40.0007 43.2869 40.0007H73.5882C75.823 40.0007 76.9404 44.4484 76.9404 53.3437Z"
        fill="url(#paint0_linear_1227_29886)" />
    <path
        d="M133.052 29.1923C135.979 27.7032 139.413 27.8589 142.206 29.6187C145 31.3717 146.666 34.4175 146.666 37.7475V88.9232C146.666 92.26 145 95.299 142.206 97.052C140.679 98.0064 138.973 98.4937 137.253 98.4937C135.819 98.4937 134.386 98.1553 133.046 97.4717L123.172 92.4902C119.519 90.6356 117.252 86.913 117.252 82.7775V43.8864C117.252 39.7442 119.519 36.0216 123.172 34.1806L133.052 29.1923Z"
        fill="url(#paint1_linear_1227_29886)" />

</svg>
