<svg width="61" height="61" viewBox="0 0 61 61" fill="none" xmlns="http://www.w3.org/2000/svg">
<path d="M60.6667 23.6666V0.333252H37.3333L46.6433 9.64325L32.2367 24.0499C28.8628 21.6331 24.8168 20.3334 20.6667 20.3333C9.63667 20.3333 0.666672 29.3032 0.666672 40.3332C0.666672 51.3632 9.63667 60.3332 20.6667 60.3332C31.6967 60.3332 40.6667 51.3632 40.6667 40.3332C40.6667 36.0199 39.28 32.0332 36.95 28.7633L51.3567 14.3566L60.6667 23.6666ZM20.6667 53.6666C13.3133 53.6666 7.33334 47.6866 7.33334 40.3332C7.33334 32.9799 13.3133 26.9999 20.6667 26.9999C28.02 26.9999 34 32.9799 34 40.3332C34 47.6866 28.02 53.6666 20.6667 53.6666Z" fill="white"/>
</svg>
