<svg width="16" height="12" viewBox="0 0 16 12" fill="none" xmlns="http://www.w3.org/2000/svg">
<path fill-rule="evenodd" clip-rule="evenodd" d="M10.7722 3.48865C10.7722 5.0551 9.52341 6.31115 7.96601 6.31115C6.40861 6.31115 5.15982 5.0551 5.15982 3.48865C5.15982 1.92159 6.40861 0.666748 7.96601 0.666748C9.52341 0.666748 10.7722 1.92159 10.7722 3.48865ZM7.96601 11.3334C5.67855 11.3334 3.72538 10.9708 3.72538 9.52019C3.72538 8.06902 5.66602 7.69316 7.96601 7.69316C10.2535 7.69316 12.2066 8.05581 12.2066 9.50698C12.2066 10.9576 10.266 11.3334 7.96601 11.3334ZM11.9714 3.53956C11.9714 4.3381 11.7332 5.082 11.3154 5.70042C11.2724 5.76406 11.3106 5.84992 11.3864 5.86313C11.4909 5.88114 11.5989 5.89135 11.7087 5.89435C12.8041 5.92317 13.7873 5.21409 14.0589 4.14657C14.4612 2.5609 13.2799 1.13735 11.7756 1.13735C11.612 1.13735 11.4556 1.15476 11.3034 1.18598C11.2825 1.19078 11.2604 1.20039 11.2485 1.219C11.2342 1.24182 11.2449 1.27244 11.2592 1.29225C11.7111 1.92928 11.9714 2.7062 11.9714 3.53956ZM13.7855 7.00846C14.5215 7.15316 15.0056 7.44856 15.2062 7.87785C15.3757 8.23028 15.3757 8.63916 15.2062 8.991C14.8994 9.65684 13.9102 9.87059 13.5258 9.92583C13.4464 9.93783 13.3825 9.86879 13.3909 9.78893C13.5873 7.94389 12.0251 7.0691 11.621 6.86797C11.6037 6.85896 11.6001 6.84515 11.6019 6.83674C11.6031 6.83074 11.6102 6.82113 11.6234 6.81933C12.4979 6.80312 13.4381 6.9232 13.7855 7.00846ZM4.2914 5.89429C4.40123 5.89129 4.50868 5.88168 4.61374 5.86307C4.68955 5.84986 4.72776 5.764 4.68478 5.70036C4.26692 5.08194 4.02874 4.33804 4.02874 3.5395C4.02874 2.70614 4.28901 1.92922 4.74089 1.29219C4.75521 1.27238 4.76536 1.24176 4.75163 1.21894C4.73969 1.20093 4.71701 1.19072 4.69671 1.18592C4.5439 1.1547 4.3875 1.13728 4.22394 1.13728C2.71967 1.13728 1.53833 2.56084 1.94126 4.14651C2.21287 5.21403 3.19602 5.92311 4.2914 5.89429ZM4.39795 6.83638C4.39974 6.84539 4.39616 6.8586 4.37944 6.86821C3.97472 7.06934 2.41254 7.94413 2.60893 9.78857C2.61729 9.86903 2.55402 9.93747 2.47462 9.92607C2.0902 9.87083 1.10108 9.65709 0.794251 8.99124C0.624125 8.6388 0.624125 8.23052 0.794251 7.87809C0.994822 7.4488 1.47834 7.1534 2.21436 7.0081C2.56237 6.92344 3.50195 6.80336 4.37706 6.81957C4.39019 6.82137 4.39675 6.83098 4.39795 6.83638Z" fill="white"/>
</svg>
