<!DOCTYPE svg PUBLIC "-//W3C//DTD SVG 1.1//EN" "http://www.w3.org/Graphics/SVG/1.1/DTD/svg11.dtd">
<!-- Uploaded to: SVG Repo, www.svgrepo.com, Transformed by: SVG Repo Mixer Tools -->
<svg fill="#9f8f65" version="1.1" id="Layer_1" xmlns="http://www.w3.org/2000/svg" xmlns:xlink="http://www.w3.org/1999/xlink" width="256px" height="256px" viewBox="0 0 72 72" enable-background="new 0 0 72 72" xml:space="preserve" stroke="#9f8f65" stroke-width="0.00072">
<g id="SVGRepo_bgCarrier" stroke-width="0"/>
<g id="SVGRepo_tracerCarrier" stroke-linecap="round" stroke-linejoin="round" stroke="#c9c9ba" stroke-width="3.168"> <g> <path d="M16.86,27.69c6.848,0,12.418-5.569,12.418-12.416c0-6.847-5.57-12.417-12.418-12.417c-6.846,0-12.416,5.57-12.416,12.417 C4.444,22.121,10.013,27.69,16.86,27.69z M16.86,6.857c4.642,0,8.418,3.776,8.418,8.417s-3.776,8.416-8.418,8.416 c-4.641,0-8.416-3.775-8.416-8.416C8.444,10.632,12.219,6.857,16.86,6.857z"/> <path d="M12.355,15.275l-0.005-0.267c-0.004-0.114-0.004-0.114,0.021-0.245c0.103-0.542-0.252-1.067-0.794-1.171 c-0.539-0.1-1.067,0.252-1.171,0.794c-0.063,0.327-0.063,0.478-0.056,0.688l0.004,0.2c0,0.553,0.447,1,1,1 C11.906,16.274,12.354,15.827,12.355,15.275z"/> <path d="M12.283,13.211c0.322,0,0.639-0.155,0.832-0.444c0.839-1.252,2.239-2,3.745-2c0.553,0,1-0.447,1-1c0-0.553-0.447-1-1-1 c-2.174,0-4.195,1.079-5.407,2.887c-0.307,0.459-0.185,1.08,0.274,1.388C11.898,13.156,12.092,13.211,12.283,13.211z"/> <path d="M44.859,27.69c6.849,0,12.418-5.569,12.418-12.416c0-6.847-5.569-12.417-12.418-12.417c-6.846,0-12.416,5.57-12.416,12.417 C32.444,22.121,38.014,27.69,44.859,27.69z M44.859,6.857c4.643,0,8.418,3.776,8.418,8.417s-3.775,8.416-8.418,8.416 c-4.641,0-8.416-3.775-8.416-8.416C36.444,10.632,40.219,6.857,44.859,6.857z"/> <path d="M40.283,13.211c0.322,0,0.639-0.155,0.832-0.444c0.839-1.252,2.238-2,3.744-2c0.554,0,1-0.447,1-1c0-0.553-0.446-1-1-1 c-2.174,0-4.194,1.079-5.406,2.887c-0.307,0.459-0.186,1.08,0.273,1.388C39.898,13.156,40.092,13.211,40.283,13.211z"/> <path d="M68.854,32.122c-0.655-0.67-1.472-1.029-2.467-1.029c-0.809,0-1.681,0.217-2.74,0.729 c-3.144,1.682-7.642,4.045-10.582,5.577l0.049-0.75c0.004-0.049,0.006-0.196,0.006-0.246c0-3.891-3.11-7.26-6.932-7.26H9.05 c-3.758,0-7.051,3.696-7.051,7.589V62.87c0,3.745,3.164,6.272,7.051,6.272h37.138c3.856,0,6.879-2.747,6.928-6.519 c-0.001,0.004-0.001,0.009-0.002,0.002l-0.104-1.664c2.657,1.332,6.785,3.472,10.613,5.488c0.109,0.058,0.209,0.108,0.328,0.146 c1.041,0.32,1.87,0.54,2.669,0.545c1.425-0.011,2.29-0.708,2.71-1.289c0.498-0.687,0.67-1.576,0.67-2.779V36.166V36.06 C70,35.263,70.102,33.388,68.854,32.122z M66.119,63.029c-0.279-0.066-0.577-0.159-0.785-0.223 c-13.452-7.082-13.92-7.094-14.514-7.094c-0.551,0-1.078,0.202-1.457,0.604c-0.377,0.4-0.572,0.889-0.539,1.439l0.295,4.836 c-0.029,1.549-1.307,2.551-2.932,2.551H9.05c-1.698,0-3.051-0.72-3.051-2.272V36.732c0-1.694,1.489-3.589,3.051-3.589v-0.001 h37.138c1.569,0,2.897,1.568,2.931,3.197l-0.293,4.319c-0.039,0.553,0.153,1.1,0.53,1.506c0.379,0.406,0.91,0.637,1.465,0.637 c0.652,0,0.826-0.002,14.637-7.389c0.273-0.132,0.48-0.208,0.63-0.252c0.024,0.179,0.04,0.442,0.034,0.835L66.119,63.029z"/> <path d="M53.115,62.624c0.001-0.01,0.002-0.036,0.003-0.061C53.118,62.584,53.115,62.604,53.115,62.624z"/> <path d="M66.65,67.143c-0.01,0-0.02-0.002-0.03-0.002s-0.021,0.002-0.031,0.002C66.588,67.143,66.65,67.143,66.65,67.143z"/> <path d="M53.118,62.563c0-0.008,0.001-0.016,0.001-0.023C53.119,62.525,53.119,62.542,53.118,62.563z"/> <path d="M20.118,35.142h-8.494c-2.007,0-3.625,2.475-3.625,4.325v5.082c0,0.553,0.447,1,1,1c0.553,0,1-0.447,1-1.001v-5.082 c0-0.931,0.894-2.323,1.625-2.323h8.494c0.553,0,1-0.447,1-1S20.671,35.142,20.118,35.142z"/> <path d="M25.118,35.143h-1c-0.553,0-1,0.447-1,1c0,0.552,0.447,1,1,1h1c0.553,0,1-0.447,1-1 C26.118,35.59,25.671,35.143,25.118,35.143z"/> </g> </g>
<g id="SVGRepo_iconCarrier"> <g> <path d="M16.86,27.69c6.848,0,12.418-5.569,12.418-12.416c0-6.847-5.57-12.417-12.418-12.417c-6.846,0-12.416,5.57-12.416,12.417 C4.444,22.121,10.013,27.69,16.86,27.69z M16.86,6.857c4.642,0,8.418,3.776,8.418,8.417s-3.776,8.416-8.418,8.416 c-4.641,0-8.416-3.775-8.416-8.416C8.444,10.632,12.219,6.857,16.86,6.857z"/> <path d="M12.355,15.275l-0.005-0.267c-0.004-0.114-0.004-0.114,0.021-0.245c0.103-0.542-0.252-1.067-0.794-1.171 c-0.539-0.1-1.067,0.252-1.171,0.794c-0.063,0.327-0.063,0.478-0.056,0.688l0.004,0.2c0,0.553,0.447,1,1,1 C11.906,16.274,12.354,15.827,12.355,15.275z"/> <path d="M12.283,13.211c0.322,0,0.639-0.155,0.832-0.444c0.839-1.252,2.239-2,3.745-2c0.553,0,1-0.447,1-1c0-0.553-0.447-1-1-1 c-2.174,0-4.195,1.079-5.407,2.887c-0.307,0.459-0.185,1.08,0.274,1.388C11.898,13.156,12.092,13.211,12.283,13.211z"/> <path d="M44.859,27.69c6.849,0,12.418-5.569,12.418-12.416c0-6.847-5.569-12.417-12.418-12.417c-6.846,0-12.416,5.57-12.416,12.417 C32.444,22.121,38.014,27.69,44.859,27.69z M44.859,6.857c4.643,0,8.418,3.776,8.418,8.417s-3.775,8.416-8.418,8.416 c-4.641,0-8.416-3.775-8.416-8.416C36.444,10.632,40.219,6.857,44.859,6.857z"/> <path d="M40.283,13.211c0.322,0,0.639-0.155,0.832-0.444c0.839-1.252,2.238-2,3.744-2c0.554,0,1-0.447,1-1c0-0.553-0.446-1-1-1 c-2.174,0-4.194,1.079-5.406,2.887c-0.307,0.459-0.186,1.08,0.273,1.388C39.898,13.156,40.092,13.211,40.283,13.211z"/> <path d="M68.854,32.122c-0.655-0.67-1.472-1.029-2.467-1.029c-0.809,0-1.681,0.217-2.74,0.729 c-3.144,1.682-7.642,4.045-10.582,5.577l0.049-0.75c0.004-0.049,0.006-0.196,0.006-0.246c0-3.891-3.11-7.26-6.932-7.26H9.05 c-3.758,0-7.051,3.696-7.051,7.589V62.87c0,3.745,3.164,6.272,7.051,6.272h37.138c3.856,0,6.879-2.747,6.928-6.519 c-0.001,0.004-0.001,0.009-0.002,0.002l-0.104-1.664c2.657,1.332,6.785,3.472,10.613,5.488c0.109,0.058,0.209,0.108,0.328,0.146 c1.041,0.32,1.87,0.54,2.669,0.545c1.425-0.011,2.29-0.708,2.71-1.289c0.498-0.687,0.67-1.576,0.67-2.779V36.166V36.06 C70,35.263,70.102,33.388,68.854,32.122z M66.119,63.029c-0.279-0.066-0.577-0.159-0.785-0.223 c-13.452-7.082-13.92-7.094-14.514-7.094c-0.551,0-1.078,0.202-1.457,0.604c-0.377,0.4-0.572,0.889-0.539,1.439l0.295,4.836 c-0.029,1.549-1.307,2.551-2.932,2.551H9.05c-1.698,0-3.051-0.72-3.051-2.272V36.732c0-1.694,1.489-3.589,3.051-3.589v-0.001 h37.138c1.569,0,2.897,1.568,2.931,3.197l-0.293,4.319c-0.039,0.553,0.153,1.1,0.53,1.506c0.379,0.406,0.91,0.637,1.465,0.637 c0.652,0,0.826-0.002,14.637-7.389c0.273-0.132,0.48-0.208,0.63-0.252c0.024,0.179,0.04,0.442,0.034,0.835L66.119,63.029z"/> <path d="M53.115,62.624c0.001-0.01,0.002-0.036,0.003-0.061C53.118,62.584,53.115,62.604,53.115,62.624z"/> <path d="M66.65,67.143c-0.01,0-0.02-0.002-0.03-0.002s-0.021,0.002-0.031,0.002C66.588,67.143,66.65,67.143,66.65,67.143z"/> <path d="M53.118,62.563c0-0.008,0.001-0.016,0.001-0.023C53.119,62.525,53.119,62.542,53.118,62.563z"/> <path d="M20.118,35.142h-8.494c-2.007,0-3.625,2.475-3.625,4.325v5.082c0,0.553,0.447,1,1,1c0.553,0,1-0.447,1-1.001v-5.082 c0-0.931,0.894-2.323,1.625-2.323h8.494c0.553,0,1-0.447,1-1S20.671,35.142,20.118,35.142z"/> <path d="M25.118,35.143h-1c-0.553,0-1,0.447-1,1c0,0.552,0.447,1,1,1h1c0.553,0,1-0.447,1-1 C26.118,35.59,25.671,35.143,25.118,35.143z"/> </g> </g>
</svg>