<svg width="28" height="28" viewBox="0 0 28 28" fill="none" xmlns="http://www.w3.org/2000/svg">
<path fill-rule="evenodd" clip-rule="evenodd" d="M0.666668 14.0078C0.666668 6.64842 6.65122 0.666748 14 0.666748C21.3488 0.666748 27.3333 6.64842 27.3333 14.0078C27.3333 21.3517 21.3488 27.3334 14 27.3334C6.65122 27.3334 0.666668 21.3517 0.666668 14.0078ZM18.8906 15.3572C19.0322 15.2157 19.2124 14.997 19.251 14.9456C19.4569 14.6754 19.5598 14.341 19.5598 14.0078C19.5598 13.6335 19.444 13.2861 19.2252 13.0031C19.2073 12.9852 19.1722 12.947 19.1264 12.8972C19.0408 12.804 18.9179 12.6703 18.8005 12.5529C17.7452 11.4209 14.991 9.5685 13.5496 9.00249C13.3308 8.91373 12.7773 8.71949 12.4813 8.70662C12.1982 8.70662 11.9279 8.77094 11.6705 8.89958C11.3488 9.07968 11.0914 9.36268 10.9498 9.69714C10.8597 9.92869 10.7181 10.6233 10.7181 10.6362C10.5766 11.3952 10.4994 12.6301 10.4994 13.9936C10.4994 15.2942 10.5766 16.4764 10.6924 17.2482C10.6956 17.2514 10.7067 17.3066 10.7239 17.3923C10.7761 17.653 10.8851 18.1962 11.0013 18.4188C11.2844 18.9591 11.8378 19.2935 12.4299 19.2935H12.4813C12.8674 19.2807 13.6783 18.9462 13.6783 18.9333C15.0425 18.3673 17.7323 16.605 18.8134 15.4344L18.8906 15.3572Z" fill="white"/>
</svg>
