<svg width="14" height="14" viewBox="0 0 14 14" fill="none" xmlns="http://www.w3.org/2000/svg">
<path fill-rule="evenodd" clip-rule="evenodd" d="M0.333374 7.00378C0.333374 3.32409 3.32565 0.333252 7.00004 0.333252C10.6744 0.333252 13.6667 3.32409 13.6667 7.00378C13.6667 10.6758 10.6744 13.6666 7.00004 13.6666C3.32565 13.6666 0.333374 10.6758 0.333374 7.00378ZM9.44534 7.67848C9.51613 7.60773 9.60622 7.49839 9.62552 7.47266C9.72848 7.33759 9.77996 7.17036 9.77996 7.00378C9.77996 6.81661 9.72205 6.64295 9.61265 6.50145C9.60369 6.49249 9.58613 6.47338 9.56326 6.44848C9.52045 6.40189 9.45901 6.33501 9.4003 6.27633C8.87263 5.71032 7.49554 4.78413 6.77482 4.50112C6.66542 4.45674 6.38871 4.35962 6.24071 4.35319C6.09914 4.35319 5.964 4.38535 5.8353 4.44967C5.67443 4.53972 5.54573 4.68122 5.47494 4.84845C5.4299 4.96422 5.35911 5.31154 5.35911 5.31798C5.28833 5.69746 5.24972 6.31492 5.24972 6.9967C5.24972 7.64697 5.28833 8.23806 5.34624 8.62397C5.34784 8.62557 5.35337 8.65316 5.36197 8.69604C5.38811 8.8264 5.44258 9.09796 5.50068 9.20928C5.64225 9.47942 5.91896 9.64665 6.21497 9.64665H6.24071C6.43376 9.64021 6.83917 9.47298 6.83917 9.46655C7.52128 9.18355 8.86619 8.30238 9.40673 7.71708L9.44534 7.67848Z" fill="#FF4D67"/>
</svg>
