<svg width="21" height="16" viewBox="0 0 21 16" fill="none" xmlns="http://www.w3.org/2000/svg">
<path fill-rule="evenodd" clip-rule="evenodd" d="M6.84756 8C6.84756 10.1333 8.5939 11.8691 10.75 11.8691C12.8963 11.8691 14.6427 10.1333 14.6427 8C14.6427 6.77408 14.0712 5.68143 13.1803 4.97075C13.1804 4.97978 13.1804 4.98882 13.1804 4.99787C13.1804 6.32635 12.0878 7.41241 10.7512 7.41241C9.40483 7.41241 8.31215 6.32635 8.31215 4.99787C8.31215 4.98866 8.31221 4.97947 8.31233 4.97032C7.41927 5.68099 6.84756 6.77383 6.84756 8ZM16.4866 2.04606C18.1939 3.36485 19.6476 5.29455 20.6915 7.70909C20.7695 7.89333 20.7695 8.10667 20.6915 8.28121C18.6037 13.1103 14.8866 16 10.75 16H10.7402C6.61341 16 2.89634 13.1103 0.808537 8.28121C0.730488 8.10667 0.730488 7.89333 0.808537 7.70909C2.89634 2.88 6.61341 0 10.7402 0H10.75C12.8183 0 14.7793 0.717576 16.4866 2.04606Z" fill="#FF4D67"/>
</svg>
