<svg width="13" height="16" viewBox="0 0 13 16" fill="none" xmlns="http://www.w3.org/2000/svg">
<path d="M4.956 1.60539C5.021 0.670392 5.908 -0.0526082 6.864 0.185392L7.125 0.251392C7.588 0.367392 7.999 0.707392 8.137 1.21639C8.357 2.03239 8.67 3.72739 8.199 5.72639C8.34626 5.70605 8.49397 5.68904 8.642 5.67539C9.355 5.61039 10.311 5.60339 11.158 5.88539C11.676 6.05839 12.152 6.56639 12.358 7.15839C12.542 7.69039 12.518 8.32039 12.124 8.89139C12.182 9.01039 12.227 9.13339 12.262 9.25439C12.339 9.52439 12.375 9.82139 12.375 10.1104C12.375 10.3994 12.339 10.6964 12.262 10.9664C12.223 11.1014 12.172 11.2394 12.102 11.3704C12.271 11.7574 12.209 12.1894 12.099 12.5184C11.9864 12.8433 11.8216 13.1476 11.611 13.4194C11.665 13.5714 11.687 13.7314 11.687 13.8844C11.687 14.1894 11.598 14.5094 11.434 14.7964C11.1 15.3824 10.437 15.8604 9.5 15.8604H6C5.395 15.8604 4.93 15.7794 4.534 15.6424C4.1935 15.518 3.8681 15.3557 3.564 15.1584L3.516 15.1284C3.012 14.8214 2.517 14.5194 1.448 14.4064C0.682 14.3244 0 13.7064 0 12.8604V8.86039C0 8.01039 0.685 7.42839 1.357 7.24539C2.206 7.01339 2.931 6.45839 3.489 5.83539C4.049 5.20839 4.403 4.55539 4.528 4.19639C4.727 3.62139 4.884 2.65739 4.956 1.60639V1.60539Z" fill="#F8F8F8"/>
</svg>
