<svg width="19" height="20" viewBox="0 0 19 20" fill="none" xmlns="http://www.w3.org/2000/svg">
<path d="M7.65451 1.86473C7.74834 0.675214 9.02882 -0.24459 10.4089 0.058195L10.7857 0.14216C11.4541 0.289736 12.0474 0.722286 12.2466 1.36984C12.5642 2.40796 13.0161 4.56434 12.3361 7.10748C12.5487 7.0816 12.7619 7.05997 12.9756 7.0426C14.0049 6.9599 15.385 6.951 16.6077 7.30976C17.3555 7.52985 18.0427 8.17613 18.3401 8.92928C18.6057 9.60609 18.5711 10.4076 18.0023 11.134C18.086 11.2854 18.151 11.4419 18.2015 11.5958C18.3126 11.9393 18.3646 12.3172 18.3646 12.6848C18.3646 13.0525 18.3126 13.4303 18.2015 13.7738C18.1452 13.9456 18.0716 14.1211 17.9705 14.2878C18.2145 14.7801 18.125 15.3297 17.9662 15.7483C17.8036 16.1616 17.5657 16.5487 17.2617 16.8945C17.3397 17.0879 17.3714 17.2915 17.3714 17.4861C17.3714 17.8741 17.2429 18.2813 17.0062 18.6464C16.524 19.3919 15.5669 20 14.2142 20H9.16163C8.28825 20 7.61697 19.8969 7.04531 19.7227C6.55375 19.5645 6.08402 19.3579 5.64501 19.1069L5.57572 19.0687C4.84814 18.6782 4.13355 18.294 2.59034 18.1502C1.48454 18.0459 0.5 17.2597 0.5 16.1834V11.0946C0.5 10.0132 1.48887 9.27277 2.45897 9.03996C3.68459 8.74481 4.73121 8.03873 5.53674 7.24615C6.34516 6.44848 6.85619 5.61773 7.03664 5.16101C7.32392 4.42949 7.55057 3.20308 7.65451 1.866V1.86473Z" fill="#FF4D67"/>
</svg>
