<svg width="35" height="24" viewBox="0 0 35 24" fill="none" xmlns="http://www.w3.org/2000/svg">
<path d="M7.45009 22.7199C5.72808 21.3592 4.3521 19.7046 3.40932 17.8607C2.46654 16.0169 1.97752 14.0241 1.97324 12.0085C1.96896 9.99291 2.44951 7.99854 3.38445 6.15172C4.31939 4.3049 5.68834 2.6459 7.40456 1.27981C8.23638 0.620488 6.99478 -0.44713 6.16647 0.204631C4.26002 1.69826 2.73736 3.52044 1.69676 5.55359C0.656164 7.58674 0.120735 9.7857 0.125026 12.0086C0.129316 14.2314 0.67323 16.4289 1.72167 18.459C2.77011 20.4891 4.29979 22.3069 6.212 23.7951C7.04382 24.4498 8.28541 23.3822 7.45009 22.7259V22.7199Z" fill="#FF4D67"/>
<path d="M11.9681 17.6044C11.0659 16.894 10.3449 16.0294 9.85077 15.0653C9.35665 14.1013 9.10028 13.059 9.09798 12.0048C9.09567 10.9505 9.34748 9.90744 9.83737 8.9418C10.3273 7.97617 11.0445 7.10914 11.9435 6.39588C12.7736 5.73505 11.5338 4.66743 10.7055 5.32675C9.64536 6.18129 8.80052 7.21527 8.22365 8.36422C7.64678 9.51317 7.35025 10.7524 7.35255 12.0047C7.35485 13.257 7.65594 14.4955 8.23702 15.6428C8.81811 16.7902 9.66674 17.8219 10.73 18.6735C11.56 19.3298 12.8016 18.2622 11.9681 17.6044Z" fill="#FF4D67"/>
<path d="M17.502 13.8813C18.7052 13.8813 19.6805 13.039 19.6805 12.0001C19.6805 10.9611 18.7052 10.1189 17.502 10.1189C16.2989 10.1189 15.3235 10.9611 15.3235 12.0001C15.3235 13.039 16.2989 13.8813 17.502 13.8813Z" fill="#FF4D67"/>
<path d="M27.5537 1.27996C29.2757 2.64061 30.6517 4.29526 31.5945 6.13911C32.5373 7.98295 33.0263 9.97579 33.0305 11.9914C33.0348 14.0069 32.5543 16.0013 31.6193 17.8481C30.6844 19.6949 29.3155 21.354 27.5992 22.72C26.7674 23.3794 28.009 24.447 28.8373 23.7892C30.7426 22.2956 32.2643 20.4738 33.3042 18.4412C34.3441 16.4086 34.8792 14.2104 34.8749 11.9883C34.8706 9.76614 34.3271 7.56947 33.2793 5.53989C32.2316 3.51031 30.7029 1.69288 28.7918 0.204785C27.96 -0.45 26.7184 0.617618 27.5537 1.27392V1.27996Z" fill="#FF4D67"/>
<path d="M23.0358 6.39579C23.9379 7.10611 24.659 7.97079 25.1531 8.93482C25.6472 9.89885 25.9036 10.9411 25.9059 11.9954C25.9082 13.0496 25.6564 14.0927 25.1665 15.0583C24.6766 16.024 23.9593 16.891 23.0603 17.6043C22.2302 18.2651 23.4701 19.3327 24.2984 18.6734C25.3585 17.8189 26.2033 16.7849 26.7802 15.6359C27.3571 14.487 27.6536 13.2477 27.6513 11.9954C27.649 10.7431 27.3479 9.50468 26.7668 8.35731C26.1857 7.20995 25.3371 6.17828 24.2739 5.32666C23.4438 4.67036 22.2022 5.73798 23.0358 6.39579Z" fill="#FF4D67"/>
</svg>
